# xmcd
#
# Track frame offsets: 
#        150
#        22764
#        44990
#        68859
#        90443
#        110568
#        130848
#        149013
#        165351
#        187500
#        207977
#        215106
#        236614
#
# Disc length: 3434 seconds
#
# Revision: 2
# Processed by: cddbd v1.5.2PL0 Copyright (c) Steve Scherf et al.
# Submitted via: ExactAudioCopyFreeDBPlugin 1.0
#
DISCID=b80d680d
DTITLE=宇多田ヒカル - ULTRA BLUE
DYEAR=2006
DGENRE=R&B
TTITLE0=This Is Love
TTITLE1=Keep Tryin'
TTITLE2=BLUE
TTITLE3=日曜の朝
TTITLE4=Making Love
TTITLE5=誰かの願いが叶うころ
TTITLE6=COLORS
TTITLE7=One Night Magic [feat. 山田将司]
TTITLE8=海路
TTITLE9=WINGS
TTITLE10=Be My Last
TTITLE11=Eclipse (Interlude)
TTITLE12=Passion
EXTD=Powerd by gracenote music web API
EXTT0=
EXTT1=
EXTT2=
EXTT3=
EXTT4=
EXTT5=
EXTT6=
EXTT7=
EXTT8=
EXTT9=
EXTT10=
EXTT11=
EXTT12=
PLAYORDER=
